<svg width="76" height="77" viewBox="0 0 76 77" fill="none" xmlns="http://www.w3.org/2000/svg">
<g id="Symbol WB" clip-path="url(#clip0_4039_1814)">
<path id="Vector" d="M38.0021 16.9156C49.9033 16.9156 59.5844 26.5967 59.5844 38.5021C59.5844 50.4074 49.9033 60.0844 38.0021 60.0844C26.1008 60.0844 16.4156 50.4033 16.4156 38.5021C16.4156 26.6008 26.0967 16.9156 38.0021 16.9156ZM38.0021 0.5C17.0147 0.5 0 17.5147 0 38.5021C0 59.4894 17.0147 76.5 38.0021 76.5C58.9894 76.5 76 59.4853 76 38.5021C76 17.5188 58.9853 0.5 38.0021 0.5Z" fill="#4AB16E"/>
<path id="Vector_2" d="M34.7436 40.4391C35.3181 39.0069 35.8311 37.7224 36.3441 36.4378C36.3974 36.3024 36.4631 36.167 36.5164 36.0275C36.8338 35.234 37.4289 34.836 38.3016 34.8332C38.7038 34.8332 39.1019 34.8332 39.6026 34.8332C39.0978 36.1095 38.634 37.2915 38.1662 38.4734C37.4029 40.4145 36.6313 42.3557 35.8844 44.305C35.7654 44.6169 35.6054 44.7113 35.2771 44.7154C34.0254 44.7236 34.0254 44.7359 33.5616 43.5745C32.9543 42.0479 32.3428 40.5212 31.682 38.8756C31.5507 39.1587 31.4563 39.3434 31.3825 39.5363C30.7628 41.0999 30.1308 42.6594 29.5357 44.2311C29.3921 44.6128 29.1951 44.7195 28.8052 44.7154C27.6151 44.699 27.6192 44.7113 27.2006 43.6402C26.1254 40.907 25.0461 38.1738 23.9667 35.4406C23.8929 35.2559 23.8313 35.0671 23.7492 34.8496H26.3798C27.0939 36.6348 27.8162 38.4447 28.5918 40.3899C28.7888 39.9426 28.9406 39.6225 29.0679 39.2942C29.5891 37.9891 30.1144 36.6882 30.6109 35.3749C30.7628 34.9728 30.9516 34.8045 31.4112 34.8209C32.5192 34.862 32.5233 34.8291 32.9296 35.851C33.5165 37.3243 34.0951 38.8017 34.7395 40.435L34.7436 40.4391Z" fill="#4AB16E"/>
<path id="Vector_3" d="M40.6737 30.1917H43.0047V35.3461C43.3289 35.1902 43.5669 35.0753 43.805 34.9686C46.7803 33.6471 50.482 35.0835 51.3725 38.4076C51.9348 40.5088 51.1345 42.729 49.3739 44.0136C47.5477 45.3473 44.9623 45.4253 43.0416 44.1531C41.5191 43.1476 40.6778 41.7154 40.6573 39.885C40.6244 36.8359 40.6409 33.7826 40.6368 30.7334C40.6368 30.5692 40.6573 30.4051 40.6737 30.1917ZM46.1031 42.7003C47.7529 42.7085 49.1482 41.3337 49.1359 39.7168C49.1236 38.145 47.7734 36.8523 46.1278 36.84C44.4 36.8276 43.0581 38.0999 43.0498 39.7537C43.0416 41.383 44.4 42.6962 46.1031 42.7003Z" fill="#4AB16E"/>
<path id="Vector_4" d="M44.2112 65.1527C44.1538 65.3703 44.0101 65.5262 43.8542 65.6822C41.6094 67.9229 39.3645 70.1636 37.1238 72.4084C36.8981 72.6341 36.6519 72.7491 36.34 72.6383C36.2292 72.5972 36.1184 72.5192 36.0322 72.4331C34.8338 71.2388 33.6355 70.0446 32.4372 68.8463C32.1048 68.5138 32.1089 68.1281 32.4372 67.7998C32.7244 67.5125 33.0117 67.2252 33.299 66.9379C33.6273 66.6096 34.0172 66.6096 34.3496 66.9379C35.0472 67.6315 35.7449 68.3292 36.4385 69.0268C36.4754 69.0638 36.5041 69.1048 36.5452 69.1499C36.5985 69.1007 36.6355 69.0638 36.6765 69.0268C38.4247 67.2827 40.1689 65.5385 41.9131 63.7903C42.0936 63.6097 42.2742 63.4373 42.541 63.4004H42.5984C42.8734 63.4332 43.058 63.6056 43.2386 63.7944C43.4397 64.0037 43.6449 64.2089 43.8542 64.4099C44.006 64.5577 44.1497 64.7136 44.2071 64.927V65.1486L44.2112 65.1527Z" fill="white"/>
<g id="Text">
<path id="Vector_5" d="M25.1651 63.4783C25.3785 63.5809 25.5632 63.7122 25.7191 63.8641C25.8792 64.02 25.9982 64.2047 26.0761 64.4181C26.1582 64.6315 26.1869 64.8695 26.1664 65.1322C26.1459 65.3948 26.0556 65.6821 25.9038 65.9981L25.8545 66.0966C25.7068 66.4003 25.5385 66.6383 25.3497 66.8107C25.161 66.983 24.9599 67.102 24.7424 67.1677C24.5249 67.2334 24.3074 67.2539 24.0857 67.2252C23.8641 67.1964 23.6507 67.1308 23.4373 67.0282C23.2239 66.9256 23.0393 66.7943 22.8792 66.6383C22.7192 66.4824 22.6001 66.2977 22.5181 66.0884C22.436 65.8791 22.4032 65.6452 22.4237 65.3907C22.4401 65.1363 22.5263 64.8572 22.674 64.5535L22.7233 64.455C22.8792 64.139 23.0516 63.8887 23.2403 63.7122C23.4332 63.5358 23.6384 63.4085 23.8559 63.3388C24.0734 63.269 24.295 63.2485 24.5167 63.2772C24.7383 63.3059 24.9517 63.3716 25.1651 63.4742V63.4783ZM24.8655 64.0939C24.7136 64.02 24.5577 63.9872 24.3976 63.9995C24.2376 64.0118 24.0775 64.0775 23.9216 64.2047C23.7615 64.3319 23.6138 64.5371 23.4743 64.8203L23.425 64.9188C23.2937 65.1855 23.2321 65.4194 23.2321 65.6164C23.2321 65.8134 23.2814 65.9735 23.3717 66.1048C23.462 66.2361 23.5851 66.3387 23.7369 66.4126C23.8806 66.4824 24.0365 66.5152 24.1966 66.507C24.3607 66.4988 24.5167 66.4372 24.6726 66.3182C24.8286 66.1992 24.9722 66.0063 25.0994 65.7355L25.1487 65.637C25.2882 65.3538 25.358 65.1076 25.358 64.9024C25.358 64.6972 25.3128 64.5289 25.2184 64.3976C25.124 64.2663 25.005 64.1637 24.8614 64.0939H24.8655Z" fill="white"/>
<path id="Vector_6" d="M20.9627 60.8353L20.7616 61.102C21.0612 61.3277 21.2705 61.5781 21.3936 61.8571C21.5167 62.1321 21.5536 62.4153 21.5085 62.7067C21.4634 62.998 21.332 63.2812 21.1227 63.5603L21.0571 63.6464C20.8683 63.8968 20.6467 64.0774 20.3881 64.1882C20.1296 64.299 19.8546 64.3359 19.5551 64.2866C19.2555 64.2374 18.96 64.102 18.6604 63.8763L18.4593 64.143L17.8191 63.6588L18.0202 63.392C17.7165 63.1622 17.5072 62.9118 17.3841 62.6451C17.261 62.3742 17.2199 62.0993 17.2569 61.8202C17.2938 61.5411 17.4087 61.2744 17.5975 61.0282L17.6632 60.942C17.8725 60.6629 18.1146 60.4618 18.3813 60.3387C18.6481 60.2156 18.9313 60.1745 19.2267 60.2156C19.5222 60.2566 19.8218 60.3921 20.1214 60.6219L20.3225 60.3551L20.9627 60.8394V60.8353ZM18.3239 61.4344L18.2582 61.5206C18.1392 61.6807 18.0612 61.8366 18.0366 61.9885C18.0079 62.1403 18.0284 62.2881 18.0941 62.4317C18.1597 62.5753 18.2746 62.7108 18.4429 62.8339L19.7069 61.1636C19.5345 61.0364 19.3704 60.9625 19.2144 60.942C19.0585 60.9256 18.9066 60.9543 18.7589 61.0364C18.6112 61.1143 18.4675 61.2498 18.328 61.4344H18.3239ZM20.3881 63.1376L20.4538 63.0514C20.5933 62.8667 20.6836 62.6902 20.7288 62.5261C20.7698 62.3619 20.7575 62.206 20.6959 62.0623C20.6303 61.9187 20.5154 61.7833 20.3471 61.6519L19.0831 63.3222C19.2473 63.4454 19.4073 63.5192 19.5633 63.5438C19.7192 63.5685 19.8669 63.5438 20.0065 63.4782C20.146 63.4084 20.2732 63.2935 20.3922 63.1335L20.3881 63.1376Z" fill="white"/>
<path id="Vector_7" d="M17.6632 58.2745L14.8028 60.8066L14.2692 60.2033L16.1694 58.5207L13.1858 58.9803L12.6687 58.3976L15.5291 55.8655L16.0627 56.4688L14.1625 58.1513L17.1502 57.6958L17.6632 58.2745Z" fill="white"/>
<path id="Vector_8" d="M13.588 51.5851L12.9806 51.9503L14.4457 54.388L11.1708 56.3579L10.7563 55.6684L13.4444 54.0515L12.6728 52.767L9.98478 54.3839L9.57028 53.6945L12.2583 52.0775L12.0244 51.6877L13.2186 50.9695L13.588 51.5851Z" fill="white"/>
<path id="Vector_9" d="M11.9629 49.9312L8.38426 51.265L8.1052 50.5099L10.4814 49.6234L7.53065 48.9791L7.2598 48.2527L10.8384 46.9189L11.1175 47.6741L8.7413 48.5605L11.692 49.2089L11.9629 49.9312Z" fill="white"/>
<path id="Vector_10" d="M10.4362 45.5114L6.43081 44.8179L6.28717 44.0258L9.8001 41.9739L9.95195 42.807L9.23377 43.2297L9.48 44.5963L10.2967 44.7358L10.4362 45.5073V45.5114ZM8.76592 44.4814L8.60587 43.5949L7.39112 44.2721L8.76592 44.4814Z" fill="white"/>
<path id="Vector_11" d="M9.75086 40.5129C9.75086 40.5417 9.75086 40.5786 9.75086 40.6196C9.75086 40.6607 9.74675 40.6976 9.73444 40.7263H9.00395C9.00395 40.7263 9.00805 40.6894 9.00805 40.6484C9.00805 40.5786 8.99574 40.5129 8.97112 40.4555C8.94649 40.398 8.89314 40.3488 8.81517 40.3119C8.73719 40.2708 8.62229 40.2421 8.47044 40.2175C8.3186 40.1928 8.12161 40.1764 7.87538 40.1641C7.62914 40.1518 7.32135 40.1477 6.95611 40.1477H5.86447L5.85626 37.4186L9.67699 37.4104V38.2148L6.54161 38.223V39.3926H7.06281C7.52655 39.3926 7.91642 39.4049 8.23242 39.4377C8.55252 39.4706 8.81106 39.5157 9.01216 39.5773C9.21325 39.6388 9.36509 39.7168 9.47179 39.803C9.57849 39.8891 9.65236 39.9959 9.6893 40.119C9.73034 40.2421 9.75086 40.3734 9.75086 40.5211V40.5129Z" fill="white"/>
<path id="Vector_12" d="M9.84113 35.5636L6.07376 34.9357L6.20509 34.1436L7.55116 34.3694L7.65786 33.7374C7.74405 33.2326 7.9123 32.8796 8.17495 32.6744C8.4376 32.4693 8.7495 32.3995 9.11475 32.461C9.47999 32.5226 9.75495 32.6909 9.93552 32.9699C10.1161 33.249 10.1653 33.6389 10.0792 34.1436L9.84113 35.5718V35.5636ZM9.30352 34.6607L9.39791 34.1067C9.44306 33.8235 9.43075 33.6183 9.35277 33.487C9.2748 33.3557 9.15578 33.2777 8.98752 33.249C8.81927 33.2203 8.67973 33.2572 8.56482 33.3557C8.44992 33.4542 8.37194 33.6471 8.32269 33.9261L8.23241 34.4802L9.30763 34.6607H9.30352Z" fill="white"/>
<path id="Vector_13" d="M10.7112 31.1477L7.09975 29.896L7.3624 29.1368L8.79466 29.6334L9.31995 28.1149L7.88769 27.6184L8.15034 26.8591L11.7618 28.1108L11.4991 28.87L9.96426 28.3365L9.43897 29.855L10.9738 30.3885L10.7112 31.1477Z" fill="white"/>
<path id="Vector_14" d="M12.4882 26.4365L9.18042 24.524L9.5826 23.8264L10.7645 24.5076L11.0313 24.0439C11.2857 23.6007 11.573 23.3298 11.889 23.2313C12.205 23.1328 12.5251 23.1739 12.8452 23.3585C13.1653 23.5432 13.3623 23.7977 13.4321 24.1219C13.5018 24.4461 13.4115 24.8277 13.1571 25.271L12.4882 26.4324V26.4365ZM14.0928 23.6581L10.785 21.7457L11.1913 21.0439L14.4991 22.9564L14.0928 23.6581ZM12.2994 25.4023L12.5292 25.0083C12.6728 24.7621 12.7303 24.561 12.7057 24.4132C12.681 24.2655 12.5949 24.1465 12.4471 24.0603C12.2994 23.9741 12.1557 23.9577 12.0121 24.0111C11.8726 24.0644 11.7289 24.2122 11.5853 24.4584L11.3555 24.8524L12.2994 25.3982V25.4023Z" fill="white"/>
<path id="Vector_15" d="M13.5839 17.6419C13.4321 17.8184 13.2802 17.9415 13.1284 18.0071C12.9765 18.0769 12.8247 18.0933 12.6728 18.0564C12.521 18.0195 12.3691 17.9333 12.2173 17.8019L12.6646 17.289C12.7959 17.4039 12.9068 17.4613 12.9888 17.4613C13.075 17.4613 13.1571 17.4203 13.231 17.3341C13.3048 17.2479 13.3377 17.1617 13.3254 17.0756C13.313 16.9894 13.2392 16.8909 13.1078 16.776L13.5511 16.2671C13.7029 16.3984 13.8055 16.5379 13.8671 16.6816C13.9245 16.8293 13.9327 16.9812 13.8876 17.1371C13.8424 17.2972 13.7398 17.4654 13.588 17.6419H13.5839ZM15.5825 21.5037L12.6975 19.0003L13.2269 18.3929L15.1434 20.055L14.298 17.1576L14.8069 16.5708L17.6919 19.0742L17.1666 19.6815L15.2501 18.0195L16.0914 20.9209L15.5866 21.5037H15.5825Z" fill="white"/>
<path id="Vector_16" d="M20.5523 16.4847L19.5263 12.549L20.1871 12.0935L23.503 14.445L22.8053 14.9252L22.1241 14.445L20.9832 15.233L21.1925 16.0373L20.5482 16.4806L20.5523 16.4847ZM20.8026 14.5353L21.5413 14.0223L20.4251 13.1975L20.8026 14.5353Z" fill="white"/>
<path id="Vector_17" d="M24.7834 13.7431L23.1378 10.2958L24.5905 9.60225C24.9722 9.41757 25.2923 9.36422 25.5508 9.44219C25.8053 9.52017 26.0064 9.70074 26.1418 9.99211C26.228 10.1686 26.2567 10.3409 26.2321 10.5092C26.2075 10.6775 26.1336 10.8252 26.0105 10.9483C26.228 10.9032 26.4209 10.9237 26.6014 11.0099C26.7779 11.0961 26.9215 11.252 27.0282 11.4736C27.1226 11.6706 27.1637 11.8635 27.1555 12.0482C27.1473 12.2328 27.0734 12.4093 26.9339 12.5694C26.7943 12.7335 26.585 12.8813 26.3019 13.0167L24.7875 13.739L24.7834 13.7431ZM24.5454 11.371L25.124 11.0961C25.321 11.0017 25.44 10.895 25.4811 10.7801C25.5221 10.661 25.5098 10.5379 25.4482 10.4025C25.3826 10.263 25.2923 10.1809 25.1815 10.144C25.0707 10.1111 24.9147 10.144 24.7219 10.2342L24.135 10.5133L24.5454 11.371ZM25.2389 12.8279L25.8956 12.516C26.1213 12.4093 26.2608 12.2944 26.3101 12.1754C26.3593 12.0564 26.347 11.9209 26.2772 11.765C26.2034 11.609 26.1008 11.5106 25.9735 11.4654C25.8463 11.4203 25.6658 11.4531 25.4359 11.5598L24.7834 11.8717L25.2389 12.8279Z" fill="white"/>
<path id="Vector_18" d="M29.8312 11.6503L28.9366 8.64215L27.7793 8.98688L27.5864 8.33436L30.6684 7.41919L30.8613 8.07171L29.704 8.41644L30.5986 11.4246L29.8271 11.6544L29.8312 11.6503Z" fill="white"/>
<path id="Vector_19" d="M34.76 10.6447C34.5261 10.6734 34.3003 10.6693 34.0828 10.6242C33.8653 10.579 33.6642 10.4888 33.4796 10.3533C33.2949 10.2179 33.1389 10.0332 33.0158 9.80341C32.8927 9.57359 32.8065 9.28222 32.7614 8.93339L32.7491 8.82668C32.708 8.49017 32.7162 8.19879 32.7819 7.95256C32.8476 7.70632 32.9502 7.49702 33.0938 7.32056C33.2374 7.14819 33.4139 7.01276 33.6109 6.91427C33.812 6.81578 34.0295 6.75422 34.2634 6.72549C34.4973 6.69676 34.723 6.70087 34.9405 6.74601C35.1581 6.79115 35.3591 6.87734 35.5438 7.00866C35.7285 7.13998 35.8803 7.31645 36.0035 7.54217C36.1266 7.76378 36.2086 8.04284 36.2538 8.37936L36.2661 8.48606C36.3112 8.83489 36.2989 9.13858 36.2374 9.39302C36.1758 9.64746 36.0691 9.86087 35.9255 10.0414C35.7818 10.2179 35.6095 10.3574 35.4084 10.4518C35.2073 10.5503 34.9898 10.6119 34.7559 10.6406L34.76 10.6447ZM34.6738 9.96346C34.8421 9.94294 34.9857 9.88549 35.117 9.7911C35.2442 9.69671 35.3427 9.55307 35.4043 9.35609C35.4658 9.1632 35.4782 8.90876 35.4412 8.59687L35.4289 8.49016C35.392 8.19468 35.3181 7.96487 35.2073 7.80481C35.0965 7.64066 34.9693 7.52985 34.8215 7.4724C34.6738 7.41084 34.5178 7.39443 34.3496 7.41495C34.1895 7.43546 34.0459 7.49292 33.9146 7.58731C33.7832 7.6817 33.6848 7.82123 33.6191 8.00591C33.5534 8.19058 33.5411 8.42861 33.5781 8.72819L33.5904 8.83489C33.6314 9.14679 33.7053 9.39302 33.8161 9.56128C33.9269 9.73364 34.0582 9.84855 34.2101 9.90601C34.3619 9.96757 34.5178 9.98398 34.6779 9.96346H34.6738Z" fill="white"/>
<path id="Vector_20" d="M38.1744 10.3205L38.3345 6.50391L39.779 6.56546C40.1197 6.58188 40.3987 6.64344 40.6162 6.75835C40.8337 6.87326 40.9897 7.0251 41.0923 7.21388C41.1949 7.40676 41.24 7.62837 41.2277 7.88281C41.2154 8.14136 41.1539 8.35887 41.0348 8.54354C40.9199 8.72411 40.7476 8.86364 40.526 8.95393C40.3043 9.04832 40.0171 9.08936 39.6764 9.07294L39.0321 9.04422L38.9788 10.3534L38.1744 10.3205ZM39.0609 8.36707L39.6231 8.3917C39.9104 8.40401 40.1115 8.36297 40.2305 8.27268C40.3495 8.1824 40.4152 8.03876 40.4234 7.84998C40.4316 7.66941 40.3782 7.52578 40.2674 7.41907C40.1566 7.31237 39.9555 7.25492 39.6723 7.24261L39.1101 7.21798L39.0609 8.36297V8.36707Z" fill="white"/>
<path id="Vector_21" d="M42.7051 10.6447L43.5054 6.91016L44.2933 7.07842L43.7639 9.56127L45.8938 7.42314L46.6531 7.5873L45.8528 11.3218L45.0648 11.1536L45.5984 8.67073L43.4643 10.8089L42.7092 10.6488L42.7051 10.6447Z" fill="white"/>
<path id="Vector_22" d="M48.7789 12.4218C48.4711 12.2987 48.229 12.1468 48.0607 11.9703C47.8883 11.7939 47.7816 11.5928 47.7447 11.3712C47.7037 11.1496 47.7242 10.9156 47.8022 10.6694L48.5901 10.9854C48.5573 11.1003 48.545 11.207 48.5655 11.3096C48.5819 11.4122 48.6311 11.5025 48.7091 11.5805C48.7871 11.6626 48.8979 11.7282 49.0415 11.7857C49.2714 11.876 49.456 11.9006 49.5997 11.8554C49.7433 11.8103 49.8459 11.7118 49.9075 11.56C49.9485 11.4574 49.9608 11.363 49.9485 11.2686C49.9362 11.1783 49.8869 11.0921 49.8008 11.01C49.7146 10.928 49.5874 10.8541 49.415 10.7843L49.0456 10.6366L49.2508 10.1195L49.6202 10.2672C49.8295 10.3493 49.9936 10.3616 50.1168 10.3042C50.2399 10.2467 50.3261 10.1523 50.3753 10.0251C50.4245 9.90199 50.4245 9.78297 50.3671 9.67217C50.3096 9.56136 50.1906 9.46697 50.0018 9.3931C49.8746 9.34386 49.7638 9.31513 49.6694 9.31513C49.575 9.31513 49.4889 9.33975 49.4191 9.389C49.3493 9.43825 49.2837 9.51622 49.2303 9.61882L48.4424 9.30282C48.6065 8.95399 48.8363 8.72827 49.1318 8.62978C49.4273 8.53129 49.8049 8.57233 50.2563 8.7529C50.7036 8.93347 50.9991 9.15508 51.1468 9.41773C51.2946 9.68038 51.3028 9.97175 51.1756 10.2919C51.1017 10.4765 50.9909 10.6161 50.8514 10.7105C50.7077 10.8007 50.5395 10.8418 50.3425 10.8295C50.5354 10.9649 50.6585 11.1249 50.7159 11.3137C50.7734 11.5025 50.7529 11.7077 50.6626 11.9375C50.5805 12.1468 50.4492 12.311 50.2809 12.4259C50.1085 12.5449 49.8992 12.6023 49.6489 12.6106C49.4027 12.6147 49.1154 12.5531 48.7912 12.4218H48.7789Z" fill="white"/>
<path id="Vector_23" d="M53.0223 14.5515C52.8212 14.4284 52.6488 14.2807 52.5093 14.1083C52.3657 13.9359 52.2672 13.7431 52.2097 13.5214C52.1523 13.2998 52.1441 13.0618 52.1933 12.8033C52.2385 12.5447 52.3575 12.2657 52.5421 11.9661L52.5996 11.8717C52.7761 11.5844 52.969 11.3628 53.17 11.211C53.3752 11.0591 53.5886 10.9606 53.8102 10.9155C54.0319 10.8703 54.2535 10.8744 54.471 10.9237C54.6885 10.9729 54.8978 11.0591 55.0989 11.1822C55.3 11.3053 55.4723 11.4531 55.6119 11.6254C55.7555 11.7978 55.854 11.9907 55.9155 12.2082C55.9771 12.4257 55.9853 12.6596 55.9402 12.9141C55.895 13.1644 55.7883 13.4353 55.6078 13.7225L55.5503 13.8169C55.3656 14.1165 55.1686 14.3463 54.9593 14.5023C54.75 14.6623 54.5325 14.7649 54.3109 14.8101C54.0852 14.8593 53.8677 14.8552 53.6502 14.8101C53.4327 14.7608 53.2234 14.6746 53.0223 14.5515ZM53.3834 13.9647C53.5271 14.055 53.6789 14.1001 53.839 14.1083C53.999 14.1124 54.1632 14.0632 54.3355 13.9524C54.5079 13.8416 54.6762 13.6528 54.8403 13.3819L54.8978 13.2875C55.0537 13.0331 55.1399 12.8074 55.1563 12.6145C55.1727 12.4216 55.144 12.2533 55.066 12.1138C54.9881 11.9743 54.8773 11.8594 54.7336 11.7732C54.5982 11.687 54.4464 11.6419 54.2822 11.6337C54.118 11.6254 53.9539 11.6747 53.7897 11.7773C53.6256 11.8799 53.4614 12.0605 53.3055 12.3108L53.248 12.4052C53.0839 12.676 52.9895 12.91 52.9648 13.1152C52.9443 13.3163 52.9731 13.4886 53.0551 13.6323C53.1372 13.7718 53.2439 13.8867 53.3793 13.9688L53.3834 13.9647Z" fill="white"/>
<path id="Vector_24" d="M55.8786 16.4435L58.423 13.5913L59.6214 14.6624C59.9374 14.9456 60.1097 15.2206 60.1385 15.4873C60.1672 15.7541 60.0728 16.0044 59.8594 16.2465C59.7281 16.3943 59.5803 16.4887 59.4162 16.5297C59.252 16.5707 59.0879 16.5625 58.9237 16.4969C59.0509 16.6774 59.1084 16.8662 59.0961 17.0632C59.0838 17.2602 58.9976 17.4531 58.8334 17.6377C58.6898 17.8019 58.5256 17.9127 58.3533 17.9784C58.1768 18.0399 57.988 18.0399 57.7828 17.9784C57.5776 17.9168 57.3601 17.7773 57.1262 17.568L55.8745 16.4517L55.8786 16.4435ZM56.8964 16.5092L57.4422 16.9934C57.631 17.1617 57.7869 17.2438 57.9141 17.2438C58.0414 17.2438 58.1645 17.1822 58.2794 17.055C58.3943 16.9278 58.4477 16.7964 58.4394 16.661C58.4312 16.5256 58.3327 16.3737 58.144 16.2055L57.6023 15.7253L56.8964 16.5133V16.5092ZM57.9716 15.3026L58.4518 15.7294C58.6159 15.8731 58.7554 15.9428 58.8786 15.9346C59.0017 15.9264 59.1125 15.869 59.211 15.7582C59.3136 15.6433 59.3587 15.5283 59.3464 15.4134C59.3341 15.2985 59.2479 15.1672 59.0838 15.0236L58.5995 14.5927L57.9675 15.3026H57.9716Z" fill="white"/>
<path id="Vector_25" d="M58.9196 19.2628L62.769 17.9578L63.2738 18.5857L61.1685 22.0617L60.6391 21.4009L61.0659 20.6869L60.1959 19.6034L59.408 19.8702L58.9196 19.2587V19.2628ZM60.8813 19.3695L61.4435 20.0713L62.1863 18.8976L60.8772 19.3695H60.8813Z" fill="white"/>
<path id="Vector_26" d="M61.9606 23.2807L65.3094 21.4463L65.6951 22.1522L64.3655 22.8827L65.137 24.2903L66.4667 23.5598L66.8524 24.2657L63.5037 26.1001L63.1179 25.3942L64.546 24.6145L63.7745 23.2028L62.3505 23.9825L61.9647 23.2766L61.9606 23.2807Z" fill="white"/>
<path id="Vector_27" d="M64.23 27.7702L67.8579 26.5801L68.1082 27.3434L66.6677 27.8153L67.1684 29.342L68.6089 28.87L68.8592 29.6334L65.2273 30.8235L64.9769 30.0602L66.52 29.5513L66.0193 28.0246L64.4722 28.5294L64.2218 27.7661L64.23 27.7702Z" fill="white"/>
<path id="Vector_28" d="M65.6623 32.5881L69.4543 32.1367L69.5487 32.937L68.1944 33.097L68.256 33.6305C68.3175 34.1394 68.2518 34.5252 68.059 34.796C67.8661 35.0669 67.5829 35.2228 67.2177 35.268C66.8483 35.3131 66.5405 35.227 66.2902 35.0094C66.0399 34.7919 65.8839 34.4308 65.8223 33.9219L65.6623 32.5923V32.5881ZM66.044 35.7769L69.836 35.3254L69.9303 36.1298L66.1383 36.5812L66.044 35.7769ZM66.4338 33.3063L66.4872 33.7578C66.52 34.0409 66.5939 34.2338 66.7006 34.3405C66.8114 34.4431 66.9509 34.4882 67.1192 34.4677C67.2874 34.4472 67.4147 34.3733 67.4967 34.2461C67.5788 34.1189 67.6034 33.9137 67.5706 33.6305L67.5173 33.1791L66.4338 33.3063Z" fill="white"/>
<path id="Vector_29" d="M66.1342 38.3911L69.9427 38.6825L69.8811 39.4827L67.349 39.2899L69.7539 41.1161L69.6964 41.8917L65.888 41.6004L65.9496 40.8001L68.4817 40.993L66.0768 39.1626L66.1342 38.3911ZM70.0371 40.3035C70.0535 40.0737 70.1027 39.8849 70.1848 39.7372C70.2669 39.5894 70.3777 39.4869 70.5254 39.4253C70.6691 39.3637 70.8414 39.3432 71.0425 39.3555L70.9892 40.0327C70.8168 40.0204 70.6937 40.0368 70.6239 40.086C70.5541 40.1353 70.5172 40.2173 70.5049 40.3323C70.4967 40.4472 70.5213 40.5333 70.5829 40.5949C70.6444 40.6565 70.7634 40.6934 70.9358 40.7098L70.8825 41.3829C70.6814 41.3664 70.5172 41.3172 70.3818 41.2351C70.2463 41.153 70.152 41.034 70.0945 40.8781C70.0371 40.7221 70.0165 40.5292 70.0371 40.2953V40.3035Z" fill="white"/>
<path id="Vector_30" d="M64.4393 47.1488C64.546 46.841 64.702 46.5906 64.9113 46.3896C65.1206 46.1885 65.3791 46.0695 65.6992 46.0284C66.0152 45.9833 66.3969 46.0407 66.836 46.1926L66.9386 46.2295C67.2546 46.3403 67.5132 46.4757 67.7101 46.6317C67.9071 46.7917 68.0549 46.9682 68.1493 47.1652C68.2436 47.3622 68.2888 47.5674 68.2888 47.7849C68.2888 48.0024 68.2518 48.2199 68.1739 48.4415C68.1041 48.6426 68.0138 48.8232 67.9071 48.9791C67.8004 49.1351 67.6691 49.2623 67.5214 49.3608C67.3736 49.4593 67.2054 49.5249 67.0207 49.5537C66.8319 49.5824 66.6308 49.566 66.4092 49.5044L66.6842 48.7165C66.9058 48.7493 67.0822 48.7165 67.2218 48.6303C67.3613 48.5441 67.4598 48.4046 67.5255 48.2199C67.5747 48.0804 67.5829 47.9408 67.5542 47.7931C67.5255 47.6453 67.4434 47.5058 67.3039 47.3704C67.1643 47.235 66.9509 47.1159 66.6636 47.0175L66.561 46.9805C66.3353 46.9025 66.1342 46.8615 65.966 46.8574C65.7977 46.8533 65.6541 46.8738 65.5392 46.919C65.4243 46.9641 65.3299 47.0257 65.256 47.1077C65.1821 47.1898 65.1288 47.276 65.0919 47.3745C65.0262 47.5674 65.0221 47.7438 65.0795 47.8998C65.137 48.0598 65.2601 48.1871 65.4448 48.2856L65.1698 49.0735C64.9523 48.9791 64.7759 48.8642 64.6445 48.7288C64.5132 48.5933 64.4188 48.4415 64.3655 48.2773C64.3121 48.1132 64.2916 47.9326 64.308 47.7397C64.3244 47.5469 64.3696 47.3499 64.4393 47.1488Z" fill="white"/>
<path id="Vector_31" d="M63.3026 50.1323L66.6678 51.938L65.4243 54.2526L64.8251 53.9284L65.6828 52.3279L64.9359 51.9257L64.1521 53.3867L63.5734 53.0789L64.3573 51.6179L63.516 51.1665L62.6582 52.767L62.0591 52.4428L63.3026 50.1282V50.1323Z" fill="white"/>
<path id="Vector_32" d="M61.1439 53.8669L64.189 56.1733L63.3149 57.3265C63.1097 57.6014 62.8963 57.7943 62.6829 57.9051C62.4695 58.0159 62.252 58.0611 62.0386 58.0365C61.8211 58.0118 61.6159 57.9215 61.4107 57.7656C61.2055 57.6096 61.0618 57.4332 60.9798 57.2321C60.8977 57.0351 60.8813 56.8135 60.9305 56.5755C60.9798 56.3374 61.107 56.083 61.3163 55.808L61.7061 55.2951L60.6638 54.503L61.148 53.8628L61.1439 53.8669ZM62.2479 55.7095L61.9072 56.1569C61.7349 56.3826 61.6528 56.5755 61.6569 56.7232C61.661 56.8709 61.7431 57.0064 61.8949 57.1213C62.0386 57.2321 62.1863 57.269 62.3381 57.2403C62.49 57.2075 62.65 57.0761 62.8224 56.8504L63.163 56.4031L62.2479 55.7095Z" fill="white"/>
<path id="Vector_33" d="M58.2917 57.3962L60.9305 60.1582L59.7691 61.2662C59.4613 61.5617 59.174 61.7094 58.9073 61.7176C58.6405 61.7258 58.3943 61.6109 58.1727 61.3811C58.0373 61.2375 57.9552 61.0856 57.9265 60.9174C57.8977 60.7491 57.9224 60.5891 57.9962 60.429C57.8075 60.5398 57.6146 60.5809 57.4176 60.5562C57.2206 60.5275 57.04 60.4249 56.8677 60.2484C56.7158 60.0925 56.6173 59.9201 56.5681 59.7396C56.5188 59.559 56.5352 59.3702 56.6173 59.1732C56.6994 58.9762 56.8512 58.7669 57.0811 58.5535L58.2958 57.3962H58.2917ZM58.144 58.4058L57.6146 58.9106C57.434 59.0829 57.3396 59.2348 57.3273 59.362C57.315 59.4892 57.3683 59.6164 57.4873 59.7396C57.6064 59.8627 57.7336 59.9283 57.869 59.9283C58.0044 59.9283 58.1645 59.8463 58.3492 59.6698L58.8745 59.1691L58.144 58.4017V58.4058ZM59.2561 59.5713L58.7924 60.0145C58.6364 60.1664 58.5544 60.3018 58.5503 60.4249C58.5503 60.548 58.5954 60.6629 58.7021 60.7737C58.8088 60.8845 58.9196 60.9379 59.0345 60.9379C59.1494 60.9379 59.289 60.8599 59.4449 60.7081L59.9128 60.2608L59.2561 59.5754V59.5713Z" fill="white"/>
<path id="Vector_34" d="M54.8526 60.4907L56.9949 63.6548L56.33 64.1063L54.906 62.0051L54.9758 65.0214L54.3314 65.4564L52.1892 62.2923L52.854 61.8409L54.2781 63.9421L54.2124 60.9216L54.8526 60.4907Z" fill="white"/>
<path id="Vector_35" d="M49.1647 63.7532C49.4601 63.6178 49.7515 63.5562 50.0388 63.5727C50.3261 63.5891 50.5928 63.6917 50.8431 63.8928C51.0935 64.0939 51.3151 64.4058 51.508 64.8285L51.5531 64.927C51.6927 65.2306 51.7706 65.5097 51.7952 65.7641C51.8158 66.0186 51.787 66.2484 51.7091 66.4495C51.6311 66.6506 51.5162 66.8312 51.3561 66.9789C51.2002 67.1266 51.0155 67.2498 50.8021 67.3482C50.6092 67.4385 50.4163 67.496 50.2276 67.5247C50.0388 67.5534 49.8582 67.5493 49.6858 67.5124C49.5094 67.4755 49.3493 67.3975 49.2016 67.2826C49.0538 67.1677 48.9225 67.0076 48.8158 66.8024L49.575 66.4536C49.7064 66.6342 49.85 66.745 50.0101 66.7819C50.1701 66.8188 50.3384 66.7983 50.5148 66.7204C50.6503 66.6588 50.757 66.5685 50.8431 66.4495C50.9293 66.3305 50.9745 66.1704 50.9745 65.9775C50.9745 65.7847 50.9129 65.5507 50.7898 65.2717L50.7447 65.1732C50.6462 64.9557 50.5395 64.7833 50.4245 64.6561C50.3096 64.5289 50.1988 64.4427 50.0839 64.3893C49.9731 64.336 49.8623 64.3114 49.7515 64.3114C49.6407 64.3114 49.5422 64.336 49.4478 64.377C49.2631 64.4632 49.1318 64.5781 49.058 64.73C48.9841 64.8818 48.9759 65.0583 49.0333 65.2594L48.2741 65.6041C48.192 65.3825 48.1551 65.1773 48.1592 64.9885C48.1674 64.7997 48.2084 64.6274 48.2946 64.4755C48.3767 64.3196 48.4957 64.1841 48.6476 64.0651C48.7994 63.9461 48.9718 63.8394 49.1647 63.7491V63.7532Z" fill="white"/>
</g>
</g>
<defs>
<clipPath id="clip0_4039_1814">
<rect width="76" height="76" fill="white" transform="translate(0 0.5)"/>
</clipPath>
</defs>
</svg>
