<svg width="160" height="37" viewBox="0 0 160 37" fill="none"
  xmlns="http://www.w3.org/2000/svg">
  <path d="M29.2417 13.4187C29.2905 13.3078 29.2994 13.1925 29.2728 13.0683C29.2329 12.8997 29.1442 12.7533 28.9978 12.6203C28.8514 12.4916 28.6873 12.4251 28.5009 12.4251L7.30601 12.4694C6.88903 12.4694 6.58295 12.6513 6.39664 13.0151L5.29653 15.3484C5.19894 15.579 5.18119 15.823 5.23886 16.0759C5.30983 16.3908 5.50058 16.6836 5.80222 16.9542L13.7248 23.3907C13.8889 23.5282 13.9865 23.6746 14.0176 23.821C14.0486 23.9496 14.0353 24.0739 13.9732 24.1848C13.818 24.5219 13.6538 24.8635 13.4808 25.2139C13.3078 25.5643 13.0151 25.7373 12.5981 25.7373L9.78126 25.7418C9.65262 25.6664 9.57721 25.5732 9.5506 25.4623C9.53729 25.3958 9.54172 25.3381 9.5639 25.2804L10.6418 22.9871C10.6906 22.8762 10.6995 22.7608 10.6729 22.6366C10.6374 22.4769 10.5442 22.335 10.3979 22.2019C10.2515 22.0732 10.0873 22.0067 9.90103 22.0067L5.7002 22.0156C3.41125 22.02 1.77882 22.9915 0.798481 24.93L0.0354984 26.5358C1.09101e-05 26.6644 -0.0132969 26.7798 0.0133187 26.8995C0.0488063 27.0592 0.141961 27.2012 0.288347 27.3343C0.434733 27.4629 0.598863 27.5295 0.785173 27.5295L21.9801 27.4851C22.3971 27.4851 22.6987 27.3077 22.8762 26.9528L23.9851 24.6062C24.0827 24.3844 24.1049 24.1493 24.0473 23.9097C23.9718 23.5859 23.7811 23.2887 23.4661 23.0181L15.5436 16.5594C15.3927 16.4307 15.2996 16.2843 15.2641 16.1246C15.233 15.996 15.2419 15.8718 15.2907 15.7609C15.4548 15.4149 15.619 15.0733 15.7875 14.7273C15.9561 14.3813 16.2489 14.2083 16.6658 14.2083L19.5004 14.2039C19.6291 14.2793 19.7045 14.3725 19.7311 14.4833C19.7444 14.5499 19.74 14.6076 19.7178 14.6652L18.6398 16.9586C18.591 17.0784 18.5822 17.2026 18.6132 17.3224C18.6487 17.482 18.7419 17.624 18.8838 17.7482C19.0302 17.8724 19.1943 17.9345 19.3806 17.9345L23.5815 17.9256C24.726 17.9212 25.7196 17.6728 26.558 17.1804C27.3964 16.6836 28.0396 15.9605 28.4832 15.0112L29.2417 13.4187Z" fill="#0BCD73"/>
  <path d="M55.5645 13.3611C55.6133 13.2502 55.6222 13.1348 55.5956 13.0106C55.5734 12.9086 55.5246 12.8066 55.4536 12.7045C55.2806 12.4827 55.0722 12.3718 54.8193 12.3718L36.5122 12.4118C34.2232 12.4162 32.5908 13.3877 31.6105 15.3262L27.9686 23.0713C27.871 23.2931 27.8488 23.5327 27.9064 23.7855C27.9641 24.0384 28.0928 24.2735 28.2924 24.4953L30.568 26.935C30.9096 27.2899 31.2911 27.4629 31.7081 27.4629L48.2985 27.4274C48.7155 27.4274 49.0171 27.25 49.1945 26.8951L50.6584 23.7766C50.7072 23.6569 50.7161 23.5327 50.685 23.4129C50.6495 23.2532 50.5608 23.1113 50.4189 22.9871C50.2769 22.8628 50.1172 22.8007 49.9309 22.8007L45.7168 22.8096C43.5298 22.814 41.9373 23.7012 40.9392 25.4712C40.855 25.6397 40.7086 25.724 40.4957 25.724L38.7301 25.7285C38.5261 25.7285 38.3353 25.6353 38.1623 25.449L36.9114 24.1227C36.8094 24.0029 36.7428 23.8831 36.7162 23.7589C36.6852 23.6303 36.694 23.5061 36.7428 23.3952L37.7188 21.328C37.9051 20.9731 38.2111 20.7957 38.6281 20.7957L48.5336 20.7602C49.6781 20.7558 50.6717 20.5074 51.519 20.015C52.3662 19.5181 53.0094 18.7995 53.453 17.8591L55.5645 13.3611ZM46.0361 14.612L44.5191 17.8547C44.1154 18.6576 43.4411 19.0568 42.4918 19.0612L39.9944 19.0657C39.7637 19.0657 39.5508 18.9548 39.3601 18.733C39.2935 18.6398 39.2447 18.5422 39.2225 18.4402C39.1915 18.3116 39.2004 18.1874 39.2492 18.0765L40.5489 15.3351C40.9526 14.5321 41.6268 14.1329 42.5761 14.1285L45.6724 14.124C45.7833 14.124 45.8898 14.1773 45.9918 14.2926C46.0228 14.337 46.0406 14.3858 46.0539 14.4301C46.0628 14.4922 46.0583 14.5543 46.0361 14.612Z" fill="#0BCD73"/>
  <path d="M71.5652 5.95303C71.5075 5.70019 71.3744 5.46508 71.1659 5.24328L66.5659 0.292772C66.3751 0.115334 66.1888 0.0266151 66.0025 0.0266151C65.8073 0.0266151 65.6565 0.115334 65.5456 0.292772L53.1338 26.7044C53.0362 26.9262 53.0141 27.1657 53.0717 27.4186C53.1294 27.6714 53.258 27.9065 53.4577 28.1283L58.0533 33.0788C58.244 33.2563 58.4348 33.345 58.63 33.345C58.8251 33.345 58.976 33.2563 59.0869 33.0788L71.4898 6.66722C71.5962 6.44099 71.6228 6.20145 71.5652 5.95303Z" fill="#0BCD73"/>
  <path d="M84.793 5.92198C84.7353 5.66913 84.6022 5.43403 84.3937 5.21223L79.7936 0.266157C79.6029 0.0887188 79.4166 0 79.2303 0C79.0351 0 78.8843 0.0887188 78.7734 0.266157L66.3616 26.6778C66.264 26.8996 66.2418 27.1391 66.2995 27.3919C66.3572 27.6448 66.4858 27.8799 66.6854 28.1017L71.2811 33.0522C71.4718 33.2296 71.6626 33.3184 71.8577 33.3184C72.0529 33.3184 72.2038 33.2296 72.3147 33.0522L84.7175 6.6406C84.824 6.41437 84.8506 6.17483 84.793 5.92198Z" fill="#0BCD73"/>
  <path d="M90.3335 21.2215C90.5199 20.8667 90.8259 20.6892 91.2429 20.6892L101.148 20.6537C102.293 20.6493 103.286 20.4009 104.134 19.9085C104.981 19.4117 105.624 18.6931 106.068 17.7526L108.175 13.2502C108.224 13.1393 108.233 13.0239 108.206 12.8997C108.184 12.7977 108.135 12.6957 108.064 12.5936C107.891 12.3718 107.683 12.2609 107.43 12.2609L89.1225 12.3009C86.8336 12.3053 85.2012 13.2768 84.2208 15.2153L80.5789 22.9604C80.4813 23.1822 80.4591 23.4218 80.5168 23.6746C80.5745 23.9275 80.7031 24.1626 80.9027 24.3844L83.1784 26.8241C83.5199 27.179 83.9014 27.352 84.3184 27.352L100.909 27.3165C101.326 27.3165 101.627 27.1391 101.805 26.7842L103.269 23.6657C103.318 23.546 103.326 23.4218 103.295 23.302C103.26 23.1423 103.171 23.0004 103.029 22.8761C102.887 22.7519 102.728 22.6898 102.541 22.6898L98.3271 22.6987C96.1402 22.7031 94.5477 23.5903 93.5496 25.3603C93.4653 25.5288 93.3189 25.6131 93.106 25.6131L91.3361 25.6176C91.132 25.6176 90.9413 25.5244 90.7683 25.3381L89.5173 24.0118C89.4153 23.892 89.3488 23.7722 89.3221 23.648C89.2911 23.5194 89.3 23.3952 89.3488 23.2843L90.3335 21.2215ZM91.8639 17.9611L93.1637 15.2197C93.5673 14.4168 94.2416 14.0176 95.1909 14.0131L98.2872 14.0087C98.3981 14.0087 98.5045 14.0619 98.6066 14.1773C98.6376 14.2216 98.6554 14.2704 98.6687 14.3148C98.682 14.3813 98.6775 14.439 98.6554 14.4967L97.1294 17.7438C96.7257 18.5467 96.0515 18.9459 95.1022 18.9503L92.6047 18.9548C92.3741 18.9548 92.1612 18.8439 91.9704 18.6221C91.9039 18.5289 91.8551 18.4313 91.8329 18.3293C91.8018 18.1962 91.8107 18.0765 91.8639 17.9611Z" fill="black"/>
  <path d="M159.969 15.8363C159.911 15.5923 159.783 15.3572 159.583 15.1266L157.312 12.7001C156.966 12.3364 156.589 12.1589 156.167 12.1589L142.465 12.19C140.176 12.1944 138.543 13.1659 137.563 15.1044L133.921 22.8451C133.824 23.0669 133.801 23.3064 133.859 23.5593C133.917 23.8121 134.045 24.0472 134.245 24.269L136.521 26.7088C136.862 27.0637 137.244 27.2367 137.661 27.2367L151.363 27.2056C152.508 27.2012 153.501 26.9528 154.34 26.4604C155.183 25.9636 155.821 25.2405 156.265 24.2912L159.911 16.5594C160.005 16.3287 160.027 16.0847 159.969 15.8363ZM151.119 16.2178L147.331 24.3001C146.927 25.103 146.253 25.5022 145.304 25.5067H144.674C144.47 25.5067 144.279 25.4135 144.106 25.2272L142.868 23.9053C142.766 23.7855 142.7 23.6613 142.673 23.5415C142.642 23.4129 142.651 23.2887 142.7 23.1778L146.493 15.1088C146.896 14.3059 147.571 13.9067 148.52 13.9022H149.15C149.363 13.9022 149.553 13.991 149.713 14.1684L150.955 15.5081C151.053 15.619 151.119 15.7343 151.146 15.8585C151.177 15.9827 151.168 16.1069 151.119 16.2178Z" fill="black"/>
  <path d="M133.274 15.1221L131.002 12.6957C130.656 12.3319 130.279 12.1545 129.858 12.1545L116.155 12.1855C113.866 12.19 112.234 13.1614 111.254 15.0999L107.612 22.8451C107.514 23.0669 107.492 23.3064 107.549 23.5593C107.607 23.8121 107.736 24.0472 107.935 24.269L110.211 26.7088C110.553 27.0637 110.934 27.2367 111.351 27.2367L122.161 27.2145C123.084 28.0041 124.521 29.1796 125.222 29.7696C125.63 30.1156 126.092 30.6435 125.302 30.6435H121.629L110.752 30.6701C110.375 30.6701 110.007 30.7677 109.674 30.9496C108.854 31.4065 107.23 32.307 106.33 32.8082C105.917 33.0389 105.593 33.3893 105.394 33.8152L104.431 35.8868C104.404 35.9977 104.506 36.1174 104.626 36.1174C104.994 36.1174 105.731 36.113 106.684 36.1086C106.698 36.1174 106.711 36.1174 106.729 36.1174C108.592 36.1086 120.618 36.082 120.618 36.082C126.185 36.082 128.931 32.2981 129.224 30.6302C129.255 30.435 129.153 30.2176 128.966 30.0801C128.966 30.0801 127.156 28.5941 125.426 27.1879C126.411 27.1391 127.285 26.904 128.035 26.4604C128.878 25.9636 129.516 25.2405 129.96 24.2912L133.606 16.5594C133.699 16.3287 133.722 16.0847 133.664 15.8319C133.602 15.5923 133.473 15.3572 133.274 15.1221ZM118.999 25.5022H118.369C118.165 25.5022 117.974 25.4091 117.801 25.2228L116.563 23.9009C116.461 23.7811 116.395 23.6569 116.368 23.5371C116.337 23.4085 116.346 23.2843 116.395 23.1734L120.187 15.1044C120.591 14.3015 121.265 13.9022 122.215 13.8978H122.845C123.058 13.8978 123.248 13.9865 123.408 14.164L124.65 15.5036C124.748 15.6145 124.814 15.7299 124.841 15.8541C124.872 15.9827 124.863 16.1069 124.814 16.2178L121.026 24.3001C120.622 25.0986 119.948 25.5022 118.999 25.5022Z" fill="black"/>
</svg>
