<?xml version="1.0" standalone="no"?>
<!DOCTYPE svg PUBLIC "-//W3C//DTD SVG 20010904//EN"
 "http://www.w3.org/TR/2001/REC-SVG-20010904/DTD/svg10.dtd">
<svg version="1.0" xmlns="http://www.w3.org/2000/svg"
 width="1682.000000pt" height="502.000000pt" viewBox="0 0 1682.000000 502.000000"
 preserveAspectRatio="xMidYMid meet">

<g transform="translate(0.000000,502.000000) scale(0.100000,-0.100000)"
fill="#000000" stroke="none">
<path d="M912 4987 c-15 -16 -22 -36 -22 -65 0 -35 7 -49 49 -96 88 -101 138
-220 166 -394 8 -53 20 -124 25 -157 16 -95 111 -733 130 -865 22 -155 28
-180 57 -231 16 -30 49 -69 72 -86 82 -63 76 -63 806 -63 655 0 663 0 689 21
22 17 26 28 26 69 0 41 -4 52 -26 69 -26 21 -34 21 -678 21 -632 0 -652 1
-684 20 -18 11 -39 35 -46 52 -15 35 -20 65 -66 378 -6 41 -15 100 -20 130 -5
30 -17 102 -25 160 -9 58 -20 132 -25 165 -5 33 -17 107 -25 165 -9 58 -18
113 -20 123 -3 16 47 17 935 17 l938 0 -20 -87 c-38 -175 -89 -379 -105 -428
-31 -96 -102 -173 -193 -211 -38 -17 -193 -42 -830 -134 -395 -58 -416 -62
-437 -86 -29 -32 -30 -83 -2 -118 18 -22 28 -26 74 -26 50 0 1087 147 1201
170 79 17 164 62 232 125 88 81 121 154 177 390 42 177 55 230 85 344 7 24 14
77 17 116 5 65 3 75 -16 94 l-21 21 -1035 0 c-902 0 -1035 2 -1035 15 0 19
-27 99 -53 155 -27 60 -92 155 -140 207 -36 39 -44 43 -87 43 -36 0 -52 -5
-68 -23z"/>
<path d="M230 4209 c-100 -20 -201 -124 -220 -230 -7 -37 -9 -568 -8 -1585 l3
-1529 23 -47 c30 -60 90 -120 150 -150 l47 -23 646 -3 646 -3 -13 -67 c-8 -37
-16 -77 -19 -89 -5 -21 -9 -22 -185 -25 l-180 -3 -27 -28 -28 -27 0 -170 0
-170 28 -27 27 -28 1010 0 1010 0 27 28 28 27 0 170 0 170 -28 27 -27 28 -180
3 c-176 3 -180 4 -185 25 -3 12 -11 52 -19 89 l-13 67 646 3 646 3 47 23 c57
28 141 118 160 169 11 31 13 326 13 1598 l0 1560 -23 47 c-30 60 -90 120 -150
150 -46 23 -53 23 -356 23 l-310 0 -18 -60 c-10 -33 -17 -80 -16 -105 l3 -45
303 -5 304 -5 24 -28 24 -28 0 -1300 0 -1299 -1910 0 -1910 0 0 1299 0 1300
24 28 24 28 404 5 403 5 -3 83 c-2 46 -7 95 -12 108 l-10 24 -387 -1 c-214 -1
-408 -5 -433 -10z m3810 -3190 c0 -98 -1 -101 -29 -130 l-29 -29 -1852 0
-1852 0 -29 29 c-28 29 -29 32 -29 130 l0 101 1910 0 1910 0 0 -101z m-1515
-401 c3 -13 11 -53 19 -90 l14 -68 -428 0 -428 0 14 68 c8 37 16 77 19 90 l5
22 390 0 390 0 5 -22z m455 -388 c0 -7 -290 -10 -850 -10 -560 0 -850 3 -850
10 0 7 290 10 850 10 560 0 850 -3 850 -10z"/>
<path d="M2005 1091 c-40 -17 -60 -51 -60 -102 0 -40 5 -54 28 -76 27 -28 29
-28 157 -28 128 0 130 0 157 28 23 23 28 36 28 77 0 41 -5 54 -28 77 -26 27
-31 28 -145 30 -64 2 -126 -1 -137 -6z"/>
<path d="M11215 2973 c-269 -14 -465 -113 -538 -271 -18 -39 -22 -65 -22 -152
0 -95 3 -111 28 -162 61 -124 211 -205 491 -263 150 -32 207 -50 234 -76 30
-27 28 -70 -4 -100 -21 -20 -36 -24 -89 -24 -74 0 -109 20 -138 78 l-19 37
-279 0 -279 0 6 -27 c3 -16 21 -60 40 -100 72 -150 227 -241 471 -278 330 -50
675 29 804 184 59 71 83 136 87 235 5 120 -19 188 -93 262 -90 91 -216 143
-475 199 -169 36 -215 53 -225 85 -21 67 104 104 181 54 12 -9 27 -29 33 -45
l10 -29 260 0 261 0 0 25 c0 79 -77 195 -168 253 -126 82 -354 127 -577 115z"/>
<path d="M5785 2928 c3 -7 79 -296 169 -643 l163 -630 281 -3 282 -2 5 22 c3
13 35 178 70 367 36 189 67 347 70 349 3 3 7 3 9 1 2 -2 33 -161 70 -354 37
-192 69 -358 72 -367 5 -17 27 -18 287 -18 l282 0 175 631 c96 347 176 638
178 645 3 12 -42 14 -267 14 -149 0 -271 -1 -271 -3 0 -1 -18 -146 -39 -322
-22 -176 -43 -351 -46 -390 -4 -38 -11 -76 -15 -84 -8 -16 -13 6 -50 209 -11
63 -41 222 -67 353 l-45 237 -237 0 -237 0 -73 -397 c-64 -348 -88 -455 -91
-418 -1 6 -22 190 -48 410 l-47 400 -292 3 c-233 2 -291 0 -288 -10z"/>
<path d="M8160 2294 l0 -646 538 4 c513 4 541 5 615 26 155 43 259 121 291
220 63 189 -11 344 -196 410 -27 9 -48 19 -48 22 0 3 15 11 34 18 55 20 113
68 142 118 39 67 46 178 14 252 -27 63 -101 135 -174 168 -111 51 -151 54
-703 54 l-513 0 0 -646z m819 341 c60 -31 64 -117 8 -159 -25 -18 -45 -21
-158 -25 l-129 -3 0 101 0 101 125 0 c91 0 134 -4 154 -15z m18 -491 c46 -34
59 -70 42 -118 -25 -70 -51 -80 -205 -84 l-134 -4 0 117 0 117 134 -4 c118 -3
138 -6 163 -24z"/>
<path d="M12597 2868 c-33 -99 -408 -1190 -414 -1205 -4 -10 54 -13 269 -13
l274 0 23 95 23 95 214 0 213 0 15 -52 c8 -29 20 -72 26 -95 l11 -43 299 0
300 0 -24 63 c-13 34 -121 324 -241 645 l-219 582 -372 0 -372 0 -25 -72z
m426 -389 c16 -57 39 -148 52 -201 l23 -98 -113 0 -113 0 29 113 c15 61 38
154 50 205 13 59 25 92 32 89 7 -2 25 -51 40 -108z"/>
<path d="M14070 2295 l0 -645 583 0 584 0 27 163 c14 89 26 168 26 175 0 9
-73 12 -330 12 l-330 0 0 470 0 470 -280 0 -280 0 0 -645z"/>
<path d="M15530 2295 l0 -645 608 0 608 0 28 148 c15 81 30 157 33 169 l5 23
-368 2 -369 3 -3 68 -3 67 331 0 330 0 0 175 0 175 -330 0 -330 0 0 60 0 60
345 0 345 0 0 170 0 170 -615 0 -615 0 0 -645z"/>
<path d="M1646 2910 c-144 -25 -248 -170 -232 -323 16 -156 120 -256 277 -265
132 -8 234 46 289 154 21 41 25 61 25 143 0 86 -3 101 -27 141 -70 119 -192
174 -332 150z m103 -186 c50 -20 74 -56 74 -111 0 -34 -6 -50 -28 -73 -58 -60
-138 -48 -181 27 -24 39 -25 47 -13 76 17 43 38 67 74 83 17 7 31 13 32 14 2
0 20 -7 42 -16z"/>
<path d="M2546 2909 c-62 -10 -132 -53 -173 -107 -86 -113 -75 -292 25 -395
56 -58 105 -80 193 -85 106 -6 168 15 234 82 62 62 85 121 85 220 0 86 -28
154 -86 210 -50 49 -76 62 -149 75 -64 12 -60 12 -129 0z m131 -195 c113 -72
15 -255 -108 -203 -64 26 -88 114 -48 171 40 55 101 68 156 32z"/>
<path d="M9900 1885 l0 -235 230 0 230 0 0 235 0 235 -230 0 -230 0 0 -235z"/>
</g>
</svg>
